<?xml version="1.0" encoding="utf-8"?>
<!-- Generator: Adobe Illustrator 18.0.0, SVG Export Plug-In . SVG Version: 6.00 Build 0)  -->
<!DOCTYPE svg PUBLIC "-//W3C//DTD SVG 1.1//EN" "http://www.w3.org/Graphics/SVG/1.1/DTD/svg11.dtd">
<svg version="1.1" id="Слой_1" xmlns="http://www.w3.org/2000/svg" xmlns:xlink="http://www.w3.org/1999/xlink" x="0px" y="0px"
	 viewBox="0 0 605.4 283.6" enable-background="new 0 0 605.4 283.6" xml:space="preserve">
<g>
	<defs>
		<rect id="SVGID_1_" width="605.4" height="283.6"/>
	</defs>
	<clipPath id="SVGID_2_">
		<use xlink:href="#SVGID_1_"  overflow="visible"/>
	</clipPath>
	<g clip-path="url(#SVGID_2_)">
		<defs>
			<rect id="SVGID_3_" width="605.4" height="283.6"/>
		</defs>
		<clipPath id="SVGID_4_">
			<use xlink:href="#SVGID_3_"  overflow="visible"/>
		</clipPath>
		<path clip-path="url(#SVGID_4_)" fill="#AF2C45" d="M587.6,6.6c-0.2-0.1-0.4-0.3-0.6-0.4c-12-8.1-27.8-6.9-38.3,2
			c-4.3-3.7-9.4-6.1-15.1-7.1c-7.7-1.3-15.5,0.3-22.1,4.4c-4.9-3.1-10.7-4.9-16.9-4.9c-9.3,0-17.7,4.1-23.5,10.5
			c-6.2-6.8-14.4-10.5-23.3-10.5c-11,0-20.7,5.7-26.4,14.2C410.2,5.6,395.8,0,380.2,0c-15.4,0-29.6,5.5-40.7,14.6
			c-5.7-8.4-15.3-13.9-26.1-13.9c-7.9,0-15.1,2.9-20.6,7.7c-5.5-4.8-12.7-7.7-20.6-7.7c-6.1,0-11.7,1.8-16.5,4.7
			c-4.8-3-10.5-4.7-16.6-4.7h-34.5c-6.1,0-11.8,1.8-16.7,4.8c-4.8-3-10.5-4.8-16.6-4.8c-9.3,0-17.7,4.1-23.5,10.5
			c-6.2-6.8-14.4-10.5-23.3-10.5c-16,0-29.2,11.9-31.3,27.3l-3.7-8.4c-0.1-0.2-0.1-0.3-0.2-0.5c-3.4-7.2-9.2-12.9-16.4-15.9
			c-0.1-0.1-0.3-0.1-0.4-0.2C64.7,0,55.9,0,48.3,3.1c-0.3,0.1-0.5,0.2-0.8,0.3c-7.2,3.2-13.1,9.2-16.3,16.3L2.8,83.3
			c-3.5,7.7-3.7,16.6-0.6,24.5c3.1,7.9,9.1,14.1,16.8,17.4c2.7,1.2,5.5,1.9,8.3,2.3c-16.3,15.7-26.4,37.7-26.4,62
			c0,47.5,38.6,86.1,86.1,86.1c18.9,0,36.8-5.9,51.6-17.2c3.8,5.8,9.2,10.4,15.7,13.1c18.3,7.8,39.1-0.2,47.4-18.4h22
			c4.2,9.2,11.7,16.2,21.1,19.4c3.9,1.4,7.9,2,11.9,2c5.5,0,11-1.3,15.9-3.8c4.3-2.2,7.9-5.1,10.9-8.5c6.7,7.5,16.3,12.2,27.1,12.2
			c10.7,0,20.4-4.7,27-12.1c0,0,0.1,0.1,0.1,0.1c7.3,8,16.9,12,26.7,12c8.4,0,16.8-3,23.9-9l0,0c0.8-0.7,1.6-1.5,2.4-2.3
			c6.6,6.9,15.9,11.3,26.3,11.3H459c11.2,0,21.3-5.1,27.9-13.2c1.2,1,2.5,2,3.9,2.9c11,6.8,24.7,11.1,38.8,11.1
			c16.8,0,34.1-6.1,47.9-21.4c11.2-12.3,16.8-29,15.4-45.8c0-0.1,0-0.1,0-0.2c-1.3-14.2-7.4-27.4-16.9-37.5c2.6-2.3,4.9-5,6.9-8.1
			c5-7.9,6.5-17.8,4.3-27.1c-1.9-8.1-6.6-15.4-13-20.4c3.8-5.2,6.1-11.6,6.1-18.5V71.5L595,50.4c0,0,0,0,0,0
			C605,36.1,601.7,16.8,587.6,6.6"/>
		<path clip-path="url(#SVGID_4_)" fill="#FFC033" d="M92.7,104.3c-3.6,1.9-9.3,0.7-11.6-4.5L77.3,91H43.6l-4,8.7
			c-2.3,5.1-7.7,6.2-11.6,4.5c-4.4-1.9-6.4-7.2-4.4-11.6l28.5-63.8c0.9-2.1,2.6-3.7,4.6-4.6c2.2-0.9,5-0.9,7.2,0
			c2.1,0.9,3.6,2.5,4.6,4.6l28.5,63.8C99.1,97.1,97,102.1,92.7,104.3 M69.3,73.5l-8.9-20.1l-8.9,20.1H69.3z"/>
		<path clip-path="url(#SVGID_4_)" fill="#FFC033" d="M180.1,32.2v64c0,8-9.8,11.5-15.4,6.1c-1.1-1.1-2.1-2.8-3-4.1
			c-1.3-2.1-26.9-39.3-28.4-41.6v39.6c0,4.9-4,8.8-8.8,8.8c-4.8,0-8.8-4-8.8-8.8v-64c0-4.7,4-8.7,8.8-8.7c3,0,5.2,1.4,7.1,3.7
			c1.9,2.4,20.5,29.5,31.1,45v-40c0-4.7,3.9-8.7,8.7-8.7C176.2,23.5,180.1,27.4,180.1,32.2"/>
		<path clip-path="url(#SVGID_4_)" fill="#FFC033" d="M248,32.3c0,4.9-4,8.8-8.9,8.8h-8.5v55.1c0,4.9-4,8.8-8.7,8.8
			c-4.8,0-8.8-4-8.8-8.8V41.1h-8.5c-5,0-8.9-4-8.9-8.8c0-4.8,4-8.8,8.9-8.8h34.5C244,23.5,248,27.4,248,32.3"/>
		<path clip-path="url(#SVGID_4_)" fill="#FFC033" d="M322.2,32.2v64.1c0,4.7-4,8.7-8.7,8.7c-4.8,0-8.7-4-8.7-8.7V72H281v24.4
			c0,4.7-3.9,8.7-8.7,8.7c-4.7,0-8.7-4-8.7-8.7V32.2c0-4.7,4-8.7,8.7-8.7c4.8,0,8.7,4,8.7,8.7v24.4h23.8V32.2c0-4.7,3.9-8.7,8.7-8.7
			C318.2,23.5,322.2,27.4,322.2,32.2"/>
		<path clip-path="url(#SVGID_4_)" fill="#FFC033" d="M421.7,64.3c0,22.9-18.5,41.4-41.4,41.4c-22.8,0-41.4-18.5-41.4-41.4
			c0-22.9,18.6-41.4,41.4-41.4C403.2,22.8,421.7,41.3,421.7,64.3 M356.5,64.3c0,13.2,10.5,23.9,23.7,23.9c13,0,23.9-10.9,23.9-23.9
			c0-13-10.9-23.9-23.9-23.9C366.9,40.3,356.5,51,356.5,64.3"/>
		<path clip-path="url(#SVGID_4_)" fill="#FFC033" d="M503.4,32.2v64c0,8-9.8,11.5-15.4,6.1c-1.1-1.1-2.1-2.8-3-4.1
			c-1.3-2.1-26.9-39.3-28.4-41.6v39.6c0,4.9-4,8.8-8.8,8.8c-4.9,0-8.8-4-8.8-8.8v-64c0-4.7,4-8.7,8.8-8.7c3,0,5.2,1.4,7.1,3.7
			c1.9,2.4,20.5,29.5,31.1,45v-40c0-4.7,3.9-8.7,8.7-8.7C499.4,23.5,503.4,27.4,503.4,32.2"/>
		<path clip-path="url(#SVGID_4_)" fill="#FFC033" d="M576.4,37.4l-18.8,27v32c0,4.7-4,8.7-8.8,8.7c-4.9,0-8.7-4-8.7-8.7v-32
			l-18.8-27c-2.9-4-1.9-9.4,2.1-12.2c4-2.8,9.4-1.9,12.1,2.1l13.3,19.1L562,27.2c2.8-4,8.2-4.9,12.2-2.1
			C578.2,28,579.1,33.4,576.4,37.4"/>
		<path clip-path="url(#SVGID_4_)" fill="#FFC033" d="M87.1,252.9c-34.9,0-63.3-28.5-63.3-63.3c0-34.9,28.5-63.3,63.3-63.3
			c14,0,27.3,4.4,38.6,13.1c5.9,4.5,6.9,12.8,2.5,18.9c-4.7,5.9-13,6.9-18.9,2.4c-6.4-4.9-14.1-7.6-22.2-7.6
			c-20.2,0-36.6,16.5-36.6,36.6c0,20,16.3,36.6,36.6,36.6c7.9,0,15.7-2.7,22.1-7.6c6.1-4.4,14.3-3.4,18.9,2.5
			c4.5,5.9,3.4,14.3-2.5,18.9C114.4,248.5,101.1,252.9,87.1,252.9"/>
		<path clip-path="url(#SVGID_4_)" fill="#FFC033" d="M262.3,250.7c-5.6,2.9-14.1,1-17.7-6.9l-5.9-13.3h-51.5l-6.1,13.3
			c-3.5,7.7-11.8,9.4-17.7,6.9c-6.7-2.9-9.8-10.9-6.7-17.7l43.6-97.5c1.3-3.2,4-5.7,7.1-7.1c3.4-1.3,7.6-1.3,10.9,0
			c3.2,1.3,5.6,3.9,7.1,7.1L269,233C272,239.7,268.8,247.3,262.3,250.7 M226.6,203.7L212.9,173l-13.6,30.7H226.6z"/>
		<path clip-path="url(#SVGID_4_)" fill="#FFC033" d="M373.6,248.3c-5.7,4.9-13.6,4.7-18.9-1l-30.7-34.5v25.8
			c0,7.2-6.1,13.3-13.3,13.3c-7.4,0-13.5-6.1-13.5-13.3v-98c0-7.2,6.1-13.3,13.5-13.3c7.2,0,13.3,6.1,13.3,13.3v25.3l27.6-31.7
			c5.1-5.6,13.5-6.2,19-1.2c5.6,4.7,6.2,13.3,1.3,18.9l-32.8,37.6l35.7,39.9C379.7,234.9,379.3,243.4,373.6,248.3"/>
		<path clip-path="url(#SVGID_4_)" fill="#FFC033" d="M472.3,238.6c0,7.2-6.1,13.3-13.3,13.3h-41.9c-7.4,0-13.5-6.1-13.5-13.3v-98
			c0-7.2,6.1-13.3,13.5-13.3H459c7.2,0,13.3,6.1,13.3,13.3c0,7.6-6.1,13.6-13.3,13.6h-28.5v23.6h27c6.6,0,11.8,5.4,11.8,11.8
			c0,6.6-5.2,11.8-11.8,11.8h-27v23.6H459C466.2,224.9,472.3,231,472.3,238.6"/>
		<path clip-path="url(#SVGID_4_)" fill="#FFC033" d="M560.6,238.7c-16.2,18-40.9,16.7-57.8,6.2c-6.2-3.9-7.6-12.5-3.5-18.7
			c2.2-3.4,6.1-5.6,10.1-5.9c4.9-0.3,8.9,2.7,13.5,4.4c6.2,2,12.8,1.3,17.4-3.7c5.4-6.1,3.7-15-3.7-18.7
			c-6.1-3.5-18.2-4.7-27.1-13.6c-6.7-6.7-10.6-16.2-10.4-25.8c0.2-13,7.2-24.8,19-31.3c12.3-6.9,28.3-7.4,40.8,0.2
			c6.4,3.9,8.6,12.6,4.9,18.5c-4,6.4-10.9,7.7-19.4,4.4c-10.3-4.2-21.2,3.5-18,11.6c2.7,6.9,16,8.8,22.7,12.1
			c12.1,6.1,20,18.5,21.2,31.7C571,220.4,567.8,230.8,560.6,238.7"/>
		<defs>
			<filter id="Adobe_OpacityMaskFilter" filterUnits="userSpaceOnUse" x="22.8" y="22.8" width="555.1" height="230.1">
				<feColorMatrix  type="matrix" values="1 0 0 0 0  0 1 0 0 0  0 0 1 0 0  0 0 0 1 0"/>
			</filter>
		</defs>
		<mask maskUnits="userSpaceOnUse" x="22.8" y="22.8" width="555.1" height="230.1" id="SVGID_5_">
			<g filter="url(#Adobe_OpacityMaskFilter)">
				<g>
					<defs>
						<rect id="SVGID_6_" x="22.8" y="22.8" width="555.1" height="230.1"/>
					</defs>
					<clipPath id="SVGID_7_" clip-path="url(#SVGID_4_)">
						<use xlink:href="#SVGID_6_"  overflow="visible"/>
					</clipPath>
					<rect x="21.6" y="22.4" clip-path="url(#SVGID_7_)" width="557.5" height="234.4"/>
					<g enable-background="new    ">
						<g>
							<defs>
								<rect id="SVGID_8_" x="21.6" y="22.4" width="557.5" height="234.4"/>
							</defs>
							<clipPath id="SVGID_9_" clip-path="url(#SVGID_7_)">
								<use xlink:href="#SVGID_8_"  overflow="visible"/>
							</clipPath>
							<g opacity="0.83">
								<g>
									<defs>
										<rect id="SVGID_10_" x="-301.7" y="-152.2" width="821.2" height="431.3"/>
									</defs>
									<clipPath id="SVGID_11_" clip-path="url(#SVGID_9_)">
										<use xlink:href="#SVGID_10_"  overflow="visible"/>
									</clipPath>
									<g>
										<defs>
											<path id="SVGID_12_" d="M515.7-69.7C485-163.4,278-179.7,53.4-106.1C-171.3-32.6-328.5,103-297.8,196.7
												s237.7,110,462.3,36.4C389.1,159.6,546.3,24,515.7-69.7"/>
										</defs>
										<clipPath id="SVGID_13_" clip-path="url(#SVGID_11_)">
											<use xlink:href="#SVGID_12_"  overflow="visible"/>
										</clipPath>
										<defs>
											
												<filter id="Adobe_OpacityMaskFilter_1_" filterUnits="userSpaceOnUse" x="-560.6" y="-597.1" width="1339" height="1321.2">
												<feColorMatrix  type="matrix" values="1 0 0 0 0  0 1 0 0 0  0 0 1 0 0  0 0 0 1 0"/>
											</filter>
										</defs>
										<mask maskUnits="userSpaceOnUse" x="-560.6" y="-597.1" width="1339" height="1321.2" id="SVGID_5_">
											<g filter="url(#Adobe_OpacityMaskFilter_1_)">
												
													<linearGradient id="SVGID_14_" gradientUnits="userSpaceOnUse" x1="0" y1="283.603" x2="1" y2="283.603" gradientTransform="matrix(-209.8794 -285.6776 -285.6776 209.8794 81270.4844 -59264.9063)">
													<stop  offset="0" style="stop-color:#FFFFFF"/>
													<stop  offset="0.1147" style="stop-color:#FBFBFB"/>
													<stop  offset="0.239" style="stop-color:#EEEEEE"/>
													<stop  offset="0.3678" style="stop-color:#D8D8D8"/>
													<stop  offset="0.4998" style="stop-color:#BABABA"/>
													<stop  offset="0.6342" style="stop-color:#929292"/>
													<stop  offset="0.7706" style="stop-color:#636363"/>
													<stop  offset="0.906" style="stop-color:#2B2B2B"/>
													<stop  offset="1" style="stop-color:#000000"/>
												</linearGradient>
												<polygon clip-path="url(#SVGID_13_)" fill="url(#SVGID_14_)" points="-21.8,724.1 -560.6,-9.2 239.7,-597.1 
													778.4,136.2 												"/>
											</g>
										</mask>
										
											<linearGradient id="SVGID_15_" gradientUnits="userSpaceOnUse" x1="0" y1="283.603" x2="1" y2="283.603" gradientTransform="matrix(-209.8794 -285.6776 -285.6776 209.8794 81270.4844 -59264.9063)">
											<stop  offset="0" style="stop-color:#F6F6F6"/>
											<stop  offset="0.3657" style="stop-color:#F2F2F2"/>
											<stop  offset="0.7607" style="stop-color:#E5E5E6"/>
											<stop  offset="1" style="stop-color:#D9DADB"/>
										</linearGradient>
										<polygon clip-path="url(#SVGID_13_)" mask="url(#SVGID_5_)" fill="url(#SVGID_15_)" points="-21.8,724.1 -560.6,-9.2 
											239.7,-597.1 778.4,136.2 										"/>
									</g>
								</g>
							</g>
						</g>
					</g>
				</g>
			</g>
		</mask>
		<g opacity="0.48" clip-path="url(#SVGID_4_)">
			<g>
				<defs>
					<rect id="SVGID_16_" x="22.8" y="22.8" width="555.1" height="230.1"/>
				</defs>
				<clipPath id="SVGID_17_">
					<use xlink:href="#SVGID_16_"  overflow="visible"/>
				</clipPath>
				<path clip-path="url(#SVGID_17_)" fill="#FFFFFF" d="M28,104.3c3.9,1.7,9.3,0.6,11.6-4.5l4-8.7h33.7l3.9,8.7
					c2.3,5.2,7.9,6.4,11.6,4.5c4.3-2.2,6.4-7.2,4.4-11.6L68.6,28.9c-1-2.1-2.5-3.7-4.6-4.6c-2.2-0.9-5-0.9-7.2,0
					c-2,0.9-3.7,2.5-4.6,4.6L23.6,92.7C21.6,97.1,23.6,102.4,28,104.3 M60.4,53.5l8.9,20.1H51.5L60.4,53.5z"/>
				<path clip-path="url(#SVGID_17_)" fill="#FFFFFF" d="M164.7,102.3c5.6,5.4,15.4,2,15.4-6.1v-64c0-4.7-4-8.7-8.8-8.7
					c-4.8,0-8.7,4-8.7,8.7v40c-10.6-15.4-29.2-42.5-31.1-45c-1.9-2.3-4.1-3.7-7.1-3.7c-4.8,0-8.8,4-8.8,8.7v64c0,4.8,4,8.8,8.8,8.8
					c4.8,0,8.8-4,8.8-8.8V56.6c1.5,2.2,27.1,39.5,28.4,41.6C162.6,99.5,163.6,101.2,164.7,102.3"/>
				<path clip-path="url(#SVGID_17_)" fill="#FFFFFF" d="M204.6,41.1h8.5v55.1c0,4.8,4,8.8,8.8,8.8c4.7,0,8.7-4,8.7-8.8V41.1h8.5
					c5,0,8.9-4,8.9-8.8c0-4.8-4-8.8-8.9-8.8h-34.5c-5,0-8.9,4-8.9,8.8C195.7,37.1,199.6,41.1,204.6,41.1"/>
				<path clip-path="url(#SVGID_17_)" fill="#FFFFFF" d="M304.8,96.3c0,4.7,3.9,8.7,8.7,8.7c4.7,0,8.7-4,8.7-8.7V32.2
					c0-4.7-4-8.7-8.7-8.7c-4.9,0-8.7,4-8.7,8.7v24.4H281V32.2c0-4.7-3.9-8.7-8.7-8.7c-4.7,0-8.7,4-8.7,8.7v64.1c0,4.7,4,8.7,8.7,8.7
					c4.8,0,8.7-4,8.7-8.7V72h23.8V96.3z"/>
				<path clip-path="url(#SVGID_17_)" fill="#FFFFFF" d="M421.7,64.3c0-22.9-18.5-41.4-41.4-41.4c-22.8,0-41.4,18.5-41.4,41.4
					s18.6,41.4,41.4,41.4C403.2,105.7,421.7,87.2,421.7,64.3 M380.2,88.2c-13.2,0-23.7-10.7-23.7-23.9c0-13.2,10.5-23.9,23.7-23.9
					c13,0,23.9,10.9,23.9,23.9C404.1,77.3,393.2,88.2,380.2,88.2"/>
				<path clip-path="url(#SVGID_17_)" fill="#FFFFFF" d="M503.4,96.2v-64c0-4.7-4-8.7-8.8-8.7c-4.8,0-8.7,4-8.7,8.7v40
					c-10.6-15.4-29.2-42.5-31.1-45c-1.9-2.3-4.1-3.7-7.1-3.7c-4.9,0-8.8,4-8.8,8.7v64c0,4.9,4,8.8,8.8,8.8c4.8,0,8.8-4,8.8-8.8V56.6
					c1.5,2.2,27.1,39.5,28.4,41.6c0.9,1.3,1.9,3,3,4.1C493.6,107.7,503.4,104.3,503.4,96.2"/>
				<path clip-path="url(#SVGID_17_)" fill="#FFFFFF" d="M574.3,25.1c-4.1-2.8-9.5-1.9-12.2,2.1l-13.3,19.1l-13.3-19.1
					c-2.8-4-8.2-4.8-12.1-2.1c-4,2.9-5,8.3-2.1,12.2l18.8,27v32c0,4.7,3.9,8.7,8.7,8.7c4.8,0,8.8-4,8.8-8.7v-32l18.8-27
					C579.1,33.4,578.2,28,574.3,25.1"/>
				<path clip-path="url(#SVGID_17_)" fill="#FFFFFF" d="M87.1,153c8.1,0,15.8,2.7,22.2,7.6c5.9,4.5,14.2,3.5,18.9-2.4
					c4.4-6.1,3.4-14.3-2.5-18.9c-11.3-8.8-24.6-13.1-38.6-13.1c-34.9,0-63.3,28.5-63.3,63.3c0,34.9,28.5,63.3,63.3,63.3
					c14,0,27.3-4.4,38.4-13c5.9-4.5,7.1-13,2.5-18.9c-4.5-5.9-12.8-6.9-18.9-2.5c-6.4,4.9-14.1,7.6-22.1,7.6
					c-20.2,0-36.6-16.5-36.6-36.6C50.5,169.5,66.9,153,87.1,153"/>
				<path clip-path="url(#SVGID_17_)" fill="#FFFFFF" d="M225.4,135.5c-1.5-3.2-3.9-5.7-7.1-7.1c-3.4-1.3-7.6-1.3-10.9,0
					c-3,1.3-5.7,3.9-7.1,7.1L156.6,233c-3,6.7,0,14.8,6.7,17.7c5.9,2.5,14.1,0.8,17.7-6.9l6.1-13.3h51.5l5.9,13.3
					c3.5,7.9,12.1,9.8,17.7,6.9c6.6-3.4,9.8-10.9,6.7-17.7L225.4,135.5z M199.3,203.7l13.6-30.7l13.6,30.7H199.3z"/>
				<path clip-path="url(#SVGID_17_)" fill="#FFFFFF" d="M339.2,189.4l32.8-37.6c4.9-5.6,4.2-14.1-1.3-18.9c-5.6-5.1-14-4.4-19,1.2
					l-27.6,31.7v-25.3c0-7.2-6.1-13.3-13.3-13.3c-7.4,0-13.5,6.1-13.5,13.3v98c0,7.2,6.1,13.3,13.5,13.3c7.2,0,13.3-6.1,13.3-13.3
					v-25.8l30.7,34.5c5.2,5.7,13.1,5.9,18.9,1c5.7-4.9,6.1-13.5,1.3-19L339.2,189.4z"/>
				<path clip-path="url(#SVGID_17_)" fill="#FFFFFF" d="M459,154.2c7.2,0,13.3-6.1,13.3-13.6c0-7.2-6.1-13.3-13.3-13.3h-41.9
					c-7.4,0-13.5,6.1-13.5,13.3v98c0,7.2,6.1,13.3,13.5,13.3H459c7.2,0,13.3-6.1,13.3-13.3c0-7.6-6.1-13.6-13.3-13.6h-28.5v-23.6h27
					c6.6,0,11.8-5.2,11.8-11.8c0-6.4-5.2-11.8-11.8-11.8h-27v-23.6H459z"/>
				<path clip-path="url(#SVGID_17_)" fill="#FFFFFF" d="M549,178.4c-6.7-3.4-20-5.2-22.7-12.1c-3.2-8.1,7.7-15.8,18-11.6
					c8.4,3.4,15.3,2,19.4-4.4c3.7-5.9,1.5-14.7-4.9-18.5c-12.5-7.6-28.5-7.1-40.8-0.2c-11.8,6.6-18.9,18.4-19,31.3
					c-0.2,9.6,3.7,19,10.4,25.8c8.9,8.9,21.1,10.1,27.1,13.6c7.4,3.7,9.1,12.6,3.7,18.7c-4.5,5.1-11.1,5.7-17.3,3.7
					c-4.5-1.7-8.6-4.7-13.5-4.4c-4,0.3-7.9,2.5-10.1,5.9c-4,6.2-2.7,14.8,3.5,18.7c16.8,10.4,41.6,11.8,57.8-6.2
					c7.2-7.9,10.4-18.4,9.6-28.6C569,197,561.1,184.5,549,178.4"/>
			</g>
		</g>
		<g opacity="0.64" clip-path="url(#SVGID_4_)">
			<g>
				<defs>
					<rect id="SVGID_18_" x="89.9" y="20.7" width="3.5" height="7.2"/>
				</defs>
				<clipPath id="SVGID_19_">
					<use xlink:href="#SVGID_18_"  overflow="visible"/>
				</clipPath>
				<path clip-path="url(#SVGID_19_)" fill="#7A2136" d="M93.4,26.3c-1-2-2.2-3.8-3.5-5.5l3.2,7.2C93.2,27.4,93.3,26.8,93.4,26.3"/>
			</g>
		</g>
		<g opacity="0.64" clip-path="url(#SVGID_4_)">
			<g>
				<defs>
					<rect id="SVGID_20_" x="15.2" y="185.8" width="582.5" height="97.8"/>
				</defs>
				<clipPath id="SVGID_21_">
					<use xlink:href="#SVGID_20_"  overflow="visible"/>
				</clipPath>
				<path clip-path="url(#SVGID_21_)" fill="#7A2136" d="M597.5,216c-1-11-4.9-21.4-11-30.2c3.4,6.9,5.7,14.4,6.4,22.3
					c0,0.1,0,0.1,0,0.2c1.4,16.9-4.2,33.5-15.4,45.8c-13.8,15.3-31.1,21.4-47.9,21.4c-14.1,0-27.9-4.3-38.8-11.1
					c-1.4-0.9-2.7-1.8-3.9-2.9c-6.6,8-16.7,13.2-27.9,13.2H417c-10.3,0-19.6-4.3-26.3-11.3c-0.8,0.8-1.5,1.5-2.4,2.3l0,0
					c-7.1,6-15.5,9-23.9,9c-9.8,0-19.4-4-26.7-12c0,0-0.1-0.1-0.1-0.1c-6.6,7.4-16.3,12.1-27,12.1c-10.8,0-20.5-4.7-27.1-12.2
					c-3,3.4-6.7,6.3-10.9,8.5c-4.9,2.5-10.4,3.8-15.9,3.8c-4,0-8-0.7-11.9-2c-9.4-3.3-16.9-10.2-21.1-19.4h-22
					c-8.3,18.1-29.1,26.2-47.4,18.4c-6.5-2.8-11.9-7.3-15.7-13.1c-14.8,11.2-32.7,17.2-51.6,17.2c-30,0-56.4-15.4-71.8-38.6
					c14.4,27.6,43.2,46.5,76.5,46.5c18.9,0,36.8-5.9,51.6-17.2c3.8,5.8,9.2,10.4,15.7,13.1c18.3,7.8,39.1-0.2,47.4-18.4h22
					c4.2,9.2,11.7,16.1,21.1,19.4c3.9,1.4,7.9,2,11.9,2c5.5,0,11-1.3,15.9-3.8c4.3-2.2,7.9-5.1,10.9-8.5
					c6.7,7.5,16.3,12.2,27.1,12.2c10.7,0,20.4-4.7,27-12.1c0,0,0.1,0.1,0.1,0.1c7.3,8,16.9,12,26.7,12c8.4,0,16.8-3,23.9-9l0,0
					c0.8-0.7,1.6-1.5,2.4-2.3c6.6,6.9,15.9,11.3,26.3,11.3h41.9c11.2,0,21.3-5.1,27.9-13.2c1.2,1,2.5,2,3.9,2.9
					c11,6.8,24.7,11.1,38.8,11.1c16.8,0,34.1-6.1,47.9-21.4c11.2-12.3,16.8-29,15.4-45.8C597.5,216.1,597.5,216,597.5,216"/>
			</g>
		</g>
		<g opacity="0.64" clip-path="url(#SVGID_4_)">
			<g>
				<defs>
					<rect id="SVGID_22_" x="7" y="116.2" width="20.3" height="16.4"/>
				</defs>
				<clipPath id="SVGID_23_">
					<use xlink:href="#SVGID_22_"  overflow="visible"/>
				</clipPath>
				<path clip-path="url(#SVGID_23_)" fill="#7A2136" d="M19,125.2c-4.7-2-8.8-5.1-12-9c3,7.3,8.5,13.1,15.5,16.4
					c1.5-1.7,3.1-3.4,4.8-5C24.5,127.2,21.7,126.4,19,125.2"/>
			</g>
		</g>
		<g opacity="0.64" clip-path="url(#SVGID_4_)">
			<g>
				<defs>
					<rect id="SVGID_24_" x="576" y="129.2" width="16.9" height="48.4"/>
				</defs>
				<clipPath id="SVGID_25_">
					<use xlink:href="#SVGID_24_"  overflow="visible"/>
				</clipPath>
				<path clip-path="url(#SVGID_25_)" fill="#7A2136" d="M576,170.6c2.1,2.2,3.9,4.5,5.6,7c2.2-2.1,4.2-4.5,5.9-7.2
					c5-7.9,6.5-17.8,4.3-27.1c-1.2-5.1-3.5-9.9-6.7-14c0.9,2,1.5,4,2,6.1c2.2,9.4,0.6,19.2-4.3,27.1
					C580.9,165.6,578.6,168.3,576,170.6"/>
			</g>
		</g>
		<g opacity="0.64" clip-path="url(#SVGID_4_)">
			<g>
				<defs>
					<rect id="SVGID_26_" x="574.2" y="20.5" width="31.3" height="100.4"/>
				</defs>
				<clipPath id="SVGID_27_">
					<use xlink:href="#SVGID_26_"  overflow="visible"/>
				</clipPath>
				<path clip-path="url(#SVGID_27_)" fill="#7A2136" d="M598.5,20.5c3.9,9.5,2.9,20.7-3.4,29.9c0,0,0,0,0,0l-14.7,21.1v24.8
					c0,6.9-2.3,13.3-6.1,18.5c2.2,1.8,4.2,3.8,6,6c3-4.8,4.8-10.5,4.8-16.6V79.4l14.7-21.1c0,0,0,0,0,0
					C608,46.4,607.1,31.2,598.5,20.5"/>
			</g>
		</g>
	</g>
</g>
</svg>
